<?xml version="1.0" standalone="no"?>
<!DOCTYPE svg PUBLIC "-//W3C//DTD SVG 20010904//EN"
 "http://www.w3.org/TR/2001/REC-SVG-20010904/DTD/svg10.dtd">
<svg version="1.0" xmlns="http://www.w3.org/2000/svg"
 width="600.000000pt" height="600.000000pt" viewBox="0 0 600.000000 600.000000"
 preserveAspectRatio="xMidYMid meet">
<metadata>
Created by potrace 1.11, written by Peter Selinger 2001-2013
</metadata>
<g transform="translate(0.000000,600.000000) scale(0.100000,-0.100000)"
fill="#000000" stroke="none">
<path d="M990 4115 l0 -935 935 0 935 0 0 935 0 935 -935 0 -935 0 0 -935z"/>
<path d="M3770 1805 l0 -465 465 0 465 0 0 465 0 465 -465 0 -465 0 0 -465z"/>
<path d="M1690 1805 l0 -235 235 0 235 0 0 235 0 235 -235 0 -235 0 0 -235z"/>
</g>
</svg>
